<svg xmlns="http://www.w3.org/2000/svg" viewBox="0 0 994.76 450.95">
    <defs>
        <style>
            .cls-1 {
                fill: #24374a;
            }

            .cls-2 {
                fill: #67bcda;
            }

            .cls-3 {
                fill: #fdc687;
            }

            .cls-4 {
                fill: #2a5250;
            }

            .cls-5 {
                fill: #ed3b4f;
            }

            .cls-6 {
                fill: #f0b097;
            }

            .cls-7 {
                fill: #9ad8f6;
            }

            .cls-8 {
                fill: #f4e5db;
            }

            .cls-9 {
                fill: #fc7581;
            }
        </style>
    </defs>
    <g id="Layer_2" data-name="Layer 2">
        <g id="Layer_1-2" data-name="Layer 1">
            <g id="ZCe9Zh.tif">
                <path class="cls-1"
                    d="M222.62,38.93c11.06,7.48,23.29,12.83,34.87,19.35l102.3,55.88A4.53,4.53,0,0,0,363,115c-.44,3.4-3.39,3.38-5.73,4.19Q321.67,99.6,286.05,80C273.53,73.17,261,66.39,248.44,59.56c-2.28-1.25-4.53-2.6-7.28-2.42a3.72,3.72,0,0,0-2-2.59q-15.76-8.32-31.52-16.69l-1-.17.08.06C191,28.28,173.79,22.5,156.29,17.53A389.49,389.49,0,0,0,94.62,5.37c-.81-.09-1.62-.23-2.43-.32-1.89-.21-3.81-.7-3.38-3.09.36-2,2.12-2.11,3.9-1.87,4.51.62,9.06,1,13.56,1.73,38.45,6,75.82,15.49,110.07,34.81C218.25,37.71,220.12,39.29,222.62,38.93Z" />
                <path class="cls-1"
                    d="M551.82,96.55c-6-3.29-7.76-8.94-5.05-15.82,2.11.08,4.23.07,6.32.25,13.66,1.17,13.55,1.18,13.68-12.64,0-4-.5-6.67-5.36-6.69-5.65,0-11.32-.58-15.34,4.61-.25-8.15,3.44-12.16,12-14.16,2.18-.52,6.48,1.7,6.48-3.38,3.21-5.37,3.87-5.37,10.66,0-1,3.75-2.23,7.17.42,11.16,2,3,.64,7.21.68,10.88-4.42-.37-6.08,1.78-5.92,6,.09,2.55.45,5.13-.34,7.68C567.13,93.77,563.93,95.92,551.82,96.55Z" />
                <path class="cls-1"
                    d="M267.38,435.91a406,406,0,0,1-78.09-30.15c-24.54-13.56-47.74-29.05-69-47.45-18.12-15.71-33.92-33.67-50.17-51.2Q36,270.26,1.94,233.31L0,231.17c11.74-.78,22.64,1.22,33.56,2.27,38.57,3.68,77.11,7.58,115.66,11.41,47.3,4.69,94.58,9.45,141.89,14,8,.77,16,2.51,24.15,1.74,1.26,1.38,3,1,4.57,1.18q29.12,2.81,58.22,5.56l.35-.1q17.21,1.88,34.42,3.72c5.83.62,11.68,1.12,17.5,1.78,2.15.24,3.55.28,3.92-2.6,2-15.61,12.51-23.15,28.38-25.28,14.85-2,29.74-3.61,44.61-5.39,9.68.93,19.36,2,29.06,2.73,8.23.6,16.38,2.27,24.67,2l3.47,1.63c.09,1.44.21,2.88.26,4.32.29,8.78,7.85,14.29,16.47,12,3.06-.11,2.76,2.28,3.13,4.18,0,2.24-1.22,5.19,2.46,5.61,2.1.24,4.56-.46,4.84-2.88.31-2.81-1.55-4.47-4.46-4.69-1-1.84-3.1-3.6-.47-5.74,4.15-5.11,4.59-9.94,1.43-15.9,2.55-.17,4.67.87,6.86,2.06,3.66,2,7.1,4.65,11.6,4.5l1.47.43c-.16,2.76,2.1,3.38,3.9,4.38q33.18,18.59,66.34,37.2c2.25,1.27,5.19,1.91,5.49,5.54.14,1.72,2.42,1.19,3.73,1.33,21,2.14,42.08,4.17,63.12,6.27q58.51,5.85,117,11.76c1.66,1.4,3.59.76,5.44.74l.88,0h1.27c.1-14.42.17-28.83.34-43.24.06-5-.5-10.06.5-15.05a2.5,2.5,0,0,0,1.13-2.54l1.58-1.72a1.64,1.64,0,0,0,1.32-1.38c4.79-5.26,10.91-5.85,17.44-4.89a318.55,318.55,0,0,1,34.31,7.44c18.09,4.75,36,10.07,53.55,16.59,6.23,2.32,9,6.12,9.24,12.59a123.61,123.61,0,0,1-2.86,33.89c-1.83,7.81-3.45,9-11.53,10.14a179.62,179.62,0,0,1-23.85,1.62c-3.66,0-4.9,1-4.89,4.88.15,36.25.09,72.51.08,108.77-4.4,1.42-8.83.85-13.26.14-1-18.33-1.78-36.68-3.19-55-.58-7.43-4.19-14.45-3.15-22.26.57-4.19.1-8.53.1-12.8l-.95-.13q-11.24,45-22.48,90c-1,.33-2.06.61-3-.2,3-10.58,5.86-21.18,7.92-32,3.73-13,7.19-26.08,9.63-39.4.21-.25.53-.47.61-.76,3.66-14.32,7.27-28.65,11-43,.82-3.16-1-3.49-3.35-3.72q-40.7-4-81.4-8Q784.58,310.5,719.18,304,637.75,296,556.31,287.86q-76.57-7.58-153.16-15.12-95.79-9.5-191.57-19-98.46-9.77-196.93-19.47c-2.32-.23-4.69,0-7.14,0,.26,2.07,1.73,3,2.77,4.1,10.59,11.49,21.16,23,31.88,34.37,6.57,7,12.36,14.67,19.85,20.75,12.79,15.46,26.72,29.86,40.72,44.2a18.21,18.21,0,0,0,1.49,1.89A361.85,361.85,0,0,0,208.6,412c23.41,10.79,47.79,18.64,72.82,24.6C276.68,437.54,272,436.69,267.38,435.91ZM608.78,258c-.75,10.3-3.26,19.4-8.36,27.71-2.13,3.47-1.47,4.94,2.65,4.77,10.3-.42,20.39,1.49,30.57,2.33,12.31,1,24.58,2.45,36.88,3.67,1.74.17,4.18,2.4,5,.11.73-2-2.42-2.52-4-3.4-12-6.81-24.07-13.53-36.11-20.27Z" />
                <path class="cls-2"
                    d="M938.3,444.15c4.43.71,8.86,1.28,13.26-.14a145.26,145.26,0,0,0,22.36.95c2.26,0,4.29,0,4.13,3.21-.14,3-2.24,2.62-4.16,2.66-23.73.52-47.44-.81-71.17-.91-25.7-.11-51.41-.08-77.11-.11h0c-1.16-1.24-2.69-.91-4.12-.91q-16.51,0-33.05,0c-36.63-.52-73.27-.79-109.9-1.25-29.74-.37-59.5,0-89.21-1-27-.93-54.08.22-81.07-.93-25.89-1.1-51.79.18-77.64-1-22.8-1-45.6.1-68.36-.9-31.91-1.39-63.83,0-95.72-1.09-14-.48-28-.41-42-.67-2.62-.05-4.49-.29-4.19-3.64s2.34-2.44,4.53-2.43c14.16.08,28.33,0,42.5-.09,4.66.78,9.31,1.63,14.05.64,13.18,0,26.34-.05,39.53.45,21.47.81,43,.66,64.47.88q85.71.89,171.44,2c51.61.77,103.23.65,154.84,2,33,.83,66.1.06,99.15,1.08,19,.59,38.12.08,57.17.52,12.54.3,25.06.65,37.59.31,1,.81,2,.53,3,.2Z" />
                <path class="cls-3"
                    d="M847,269.92c-.4,4.44-4.54,5.64-7.21,8-6.66,5.91-13.5,11.62-20.42,17.24-1.53,1.24-3.53,3.68-5.66.58-1.66-2.43-1-4.3,1.3-6.22,7.87-6.49,15.52-13.26,23.36-19.78,2-1.63,3.8-4.42,7.09-2.31C845.07,268.79,845.78,269.49,847,269.92Z" />
                <path class="cls-4"
                    d="M847,269.92c-1.17-.43-1.88-1.13-1.54-2.49,4.63-3.53,9.43-6.86,13.83-10.65,3.49-3,6.86-4.42,11.36-2.38,2,.91,4.37,1.14,6.57,1.68a2.5,2.5,0,0,1-1.13,2.54c-7.64-3.56-14.16-2.25-20,4C853.41,265.42,850,267.5,847,269.92Z" />
                <path class="cls-4"
                    d="M608,249.66l-1.47-.43c1.63-1.8,1.42-4.11.92-6-2.34-9,1.15-13.67,9.83-17.08,9.56-3.75,18.3-9.58,27.39-14.5l.28.2c-9.76,7.74-21,12.88-32.17,18.12-3.48,1.65-4.84,3.34-4.52,7.27C608.61,241.31,609.4,245.55,608,249.66Z" />
                <path class="cls-4"
                    d="M873.05,316.88c-1.85,0-3.78.66-5.44-.74C869.47,316.07,871.35,315.85,873.05,316.88Z" />
                <path class="cls-4" d="M880.07,253a1.64,1.64,0,0,1-1.32,1.38Z" />
                <path class="cls-4" d="M875.2,316.91h0Z" />
                <path class="cls-5"
                    d="M644.69,211.62c-9.09,4.92-17.83,10.75-27.39,14.5-8.68,3.41-12.17,8-9.83,17.08.5,1.92.71,4.23-.92,6-4.5.15-7.94-2.52-11.6-4.5-2.19-1.19-4.31-2.23-6.86-2.06-.87-1-1.85-1.8-3.24-.93-3.08,1.94-5.69.56-8.28-1.1-4.52-4.88-9.08-9.71-11.61-16.06-2.64-6.63-2.88-6.63-8.33-1.74-16.26-8.26-32.17-17.17-47.85-26.47.42-.45,1.14-.87,1.2-1.37,1.81-13.42,4.09-26.77,6.68-40.06.61-3.17-.63-4.05-3.74-3.2a55.72,55.72,0,0,1-7.1,1l-13.35.54a29,29,0,0,0-13.32,0l-7.38-.54h-.2l-.25,0-6.14-.15c-2-2-4.42-1-6.7-1l-5.59-.78c-4.62-2.71-9.91-2.16-14.89-3.07l-4.63-.85a4.12,4.12,0,0,0-4.09-1.09c-6.17-1.09-11.93-4.1-18.38-3.84-7.43-2.93-14.06-7.36-21-11.15-2.17-7.29-.86-14.36,1.3-21.39,1.4-1.89,3.45-1.51,5.37-1.46,18.23.46,36.47.67,54.68-.11q35-1.5,69.95-5.23c10.18-1.08,20.35-2.24,30.53-3.36.21,10,3.67,13.06,13.31,11.75,5.35-.72,8.46-4.47,9.65-11.64,11-.39,21.45,1.48,30.6,8.11l1.69.94c2.55,6.1,7.86,9.8,12.4,14.18l0,.05c3.55,4.77,6.27,10.24,11.49,13.6l.28.31c.49,1.41.79,3,2.5,3.53a1.16,1.16,0,0,0,.5.61.29.29,0,0,0,.28.35l1.29,1.3A5.88,5.88,0,0,0,638.6,147c.25.39.49.78.73,1.17,4.53,8.94,10.11,17.33,14.06,26.58a52.26,52.26,0,0,1,4.22,16.42c.59,7.28-2.06,12.9-8.44,16.73A36.61,36.61,0,0,0,644.69,211.62ZM611.5,186.24c.36-.2,1-.38,1-.6a1.19,1.19,0,0,0-1.09-1.27l-1.08-1.08c-.22-1-1-1.46-1.86-1.87l-.07-.1c-.43-1.52-1.44-2.95-3-2.6s-.75,2.21-.81,3.39a37.73,37.73,0,0,0,.13,4.87c.08,1.08-.29,2.59,1,3s2.46-.49,3.16-1.73l.25.05.16-.19c1.16-.08,2-.47,2.09-1.82Z" />
                <path class="cls-6"
                    d="M574.66,99.37c-1.19,7.17-4.3,10.92-9.65,11.64-9.64,1.31-13.1-1.75-13.31-11.75l.12-2.71c12.11-.63,15.31-2.78,18.19-12.07.79-2.55.43-5.13.34-7.68-.16-4.26,1.5-6.41,5.92-6,3.3,5.12,3.2,6.5-1.66,10.12-3,2.21-2.45,5.19-2.1,8a83.52,83.52,0,0,0,2.24,9.38Z" />
                <path class="cls-4"
                    d="M574.66,99.37l.09-1.14c7.27.35,14.63.16,21.49,3.22,3.35,1.5,7,2.6,9,6C596.11,100.85,585.69,99,574.66,99.37Z" />
                <path class="cls-4"
                    d="M619.35,122.6c-4.54-4.38-9.85-8.08-12.4-14.18C611.73,112.58,616.82,116.48,619.35,122.6Z" />
                <path class="cls-4"
                    d="M630.87,136.25c-5.22-3.36-7.94-8.83-11.49-13.6C624.77,125.87,628.07,130.85,630.87,136.25Z" />
                <path class="cls-4" d="M638.6,147a5.88,5.88,0,0,1-2.88-4.64C637.82,143.2,638.16,145.13,638.6,147Z" />
                <path class="cls-4" d="M633.65,140.09c-1.71-.56-2-2.12-2.5-3.53C633,137,633.48,138.45,633.65,140.09Z" />
                <path class="cls-4" d="M634.43,141.05a.29.29,0,0,1-.28-.35A.27.27,0,0,1,634.43,141.05Z" />
                <path class="cls-1"
                    d="M389.87,130.81c7,3.79,13.6,8.22,21,11.15,1.48,1,2.9,2.07,4.45,2.93C438.88,158,462.38,171.05,486,184c7.5,4.11,14.73,8.75,22.65,12.09l.13.3c15.69,9.31,31.6,18.22,47.86,26.48.66,1,2.64,1.33,2,2.93-.76,1.86-2.53,2.37-4.47,2.2-10.22-6.89-21.4-12.13-32-18.33-4.5-2.62-9.11-5.08-13.67-7.61-5.51-2.14-9.93-6.61-16-7.53-3.87-4.67-9.69-6.29-14.68-9.09-28.71-16.09-57.59-31.89-86.42-47.76-1-.54-2.06-.91-3.1-1.36-2.87-2.89-6.6-4.28-10.23-5.86l-1.27-1a4.25,4.25,0,0,0-3.47-4.17.39.39,0,0,0,0-.59l.24-.16,0-.29,1.54-.67C380.47,124.94,384.74,128.76,389.87,130.81Z" />
                <path class="cls-6"
                    d="M389.87,130.81c-5.13-2.05-9.4-5.87-14.84-7.3-.86-.93-1.74-1.81-3.14-1.75-.69-4,3.9-4.08,5-6.77l1.92-1c.06-.12.12-.25.17-.38l-.23.32-1.95,1c-6.2,1.56-10,6.69-15.16,10,3.58-.83,6.42-3.6,10.29-3.09a3,3,0,0,0,1.6,2.43l0,.29-.24.16c-2.12.33-4.09.85-5.45,3.73,2.93-.41,4.42-1.4,5.45-3.14a4.25,4.25,0,0,1,3.47,4.18c-3.21,1.43-6.93,2-8.83,5.88l10.1-4.85c3.63,1.58,7.36,3,10.23,5.86-3.9.89-8,1.35-11.66,2.78-6.37,2.48-10.22-.72-13-5.47-2.64-4.5-5.58-9-6.29-14.43,2.34-.81,5.29-.79,5.73-4.19,9.57-.93,18.76-3.78,28.16-5.56C389,116.45,387.7,123.52,389.87,130.81Zm-11.15,3.62a3.44,3.44,0,0,0-3,1.91l-1.14.43a2.37,2.37,0,0,0,.25.31c.34-.19.67-.41,1-.62,1.39-.05,2.77-.12,2.9-2,.23-.33.47-.65.7-1l-.34-.25Zm0-12.65c2-.08,4.18.12,5.76-2.7a10.34,10.34,0,0,0-5.81,2.65l-.2.43Zm-13.11,7.5c-.26-.1-.58-.35-.76-.27s-.25.47-.37.72c.25.1.57.35.75.27S365.53,129.54,365.65,129.28Z" />
                <path class="cls-5"
                    d="M378.06,267.34q-29.12-2.77-58.23-5.56c-1.57-.15-3.31.2-4.57-1.18l-.45-3.68,0,.12c-.06-1.15-.11-2.3-.17-3.45l0,0c-.27-4.39-3.92-8.18-2.26-12.9l64-.1c1.12,0,2.27,0,3.38.17,2.84.43,4.71,4.68,2.46,5.94-5,2.78-2.68,7.19-3.45,10.91C377.15,260.76,378.12,264.09,378.06,267.34Z" />
                <path class="cls-5"
                    d="M508.46,202c4.56,2.53,9.17,5,13.67,7.61,10.63,6.2,21.81,11.44,32,18.33-2.08,2.63-2.39,4.68,0,7.88,2.15,2.9,5.53,4.77,6.82,8.31-8.3.31-16.45-1.36-24.68-2-9.7-.7-19.38-1.8-29.06-2.73-1.35-7.85-.32-15.68.13-23.52C507.62,211.31,508.09,206.67,508.46,202Z" />
                <path class="cls-1"
                    d="M316.77,239.75c3-16.35,12.67-24.92,28.74-25.55,17.21-.67,28,7.8,32.57,25.6l-1.74.78-1.22-.71c-4.05-19.77-25.05-29.66-42.79-20-7.81,4.26-12.1,11.07-12.77,20Z" />
                <path class="cls-4"
                    d="M316.77,239.75l2.79.18,55.56-.06,1.21.7.06,0-64,.1C313.58,239.16,315.38,240.38,316.77,239.75Z" />
                <path class="cls-1" d="M314.65,253.61l0,0Z" />
                <path class="cls-1" d="M314.84,257l0-.12Z" />
                <path class="cls-7"
                    d="M788.4,448.89q16.53,0,33.05,0c1.43,0,3-.33,4.12.91-10.86,0-21.72,0-32.58,0C791.42,449.84,789.71,450.27,788.4,448.89Z" />
                <path class="cls-6"
                    d="M546.07,66.26c4-5.19,9.69-4.64,15.34-4.61,4.86,0,5.4,2.7,5.36,6.69-.13,13.82,0,13.81-13.68,12.64-2.09-.18-4.21-.17-6.32-.25A89.72,89.72,0,0,0,546.07,66.26Z" />
                <path class="cls-8" d="M207.67,37.86c-.43.49-.86,1-1-.17Z" />
                <path class="cls-3"
                    d="M905.61,443.77c-12.53.34-25.05,0-37.59-.31-19-.44-38.12.07-57.17-.52-33.05-1-66.11-.25-99.15-1.08-51.61-1.31-103.23-1.19-154.84-2q-85.73-1.27-171.44-2c-21.49-.22-43-.07-64.47-.88-13.19-.5-26.35-.49-39.53-.45-25-6-49.41-13.81-72.82-24.6a361.85,361.85,0,0,1-104.38-72.43,18.21,18.21,0,0,1-1.49-1.89c7.58.75,15.14,1.69,22.77,2,8.25.36,16.48,1.34,24.72,2.13,11.93,1.15,23.85,2.45,35.79,3.55,12.44,1.15,24.9,2.08,37.33,3.22,16.47,1.5,32.92,3.14,49.39,4.66,11.95,1.11,23.91,2.09,35.86,3.19,12.75,1.17,25.49,2.45,38.23,3.61,8.73.8,17.47,1.43,26.19,2.21,13.24,1.2,26.47,2.49,39.71,3.68C424.83,367,437,368,449.07,369.05c12.74,1.17,25.48,2.47,38.23,3.66,11.78,1.1,23.58,2.1,35.36,3.21,12.27,1.16,24.52,2.48,36.78,3.59,12.6,1.14,25.23,2,37.83,3.16,19.2,1.78,38.38,3.84,57.59,5.59,16.48,1.5,33,2.61,49.46,4.12,23.08,2.11,46.14,4.46,69.22,6.66q31,3,62,5.8,39,3.54,78,6.94C911.47,422.59,908.59,433.19,905.61,443.77Z" />
                <path class="cls-3"
                    d="M62,293.43c-7.49-6.08-13.28-13.79-19.85-20.75-10.72-11.37-21.29-22.88-31.88-34.37-1-1.12-2.51-2-2.77-4.1,2.45,0,4.82-.2,7.14,0q98.46,9.69,196.93,19.47,95.79,9.5,191.57,19,76.58,7.59,153.16,15.12,81.44,8.07,162.87,16.17Q784.58,310.51,850,317q40.69,4,81.4,8c2.39.23,4.17.56,3.35,3.72-3.7,14.31-7.31,28.64-11,43-.08.29-.4.51-.61.76-5.27-2.31-10.93-1.21-16.39-1.87-12.56-1.53-25.13-2.8-37.75-3.71-11.49-.83-22.95-2-34.42-3.06-12.75-1.2-25.49-2.52-38.24-3.7-12.12-1.12-24.25-2.08-36.36-3.19-12.92-1.18-25.82-2.49-38.74-3.68-11.79-1.08-23.6-2.06-35.4-3.13-17-1.54-33.9-3.14-50.85-4.69-11.79-1.07-23.59-2.05-35.38-3.17-12.43-1.17-24.84-2.51-37.27-3.65s-24.58-2-36.85-3.17c-15.83-1.47-31.63-3.13-47.45-4.61-9.05-.85-18.16-1.17-27.16-2.34-12.56-1.63-25.18-2.34-37.77-3.54-12.11-1.15-24.25-2.06-36.36-3.18-12.59-1.17-25.17-2.5-37.76-3.66-12.12-1.12-24.25-2-36.37-3.16-16-1.49-31.94-3.14-47.92-4.63-8.89-.83-17.84-1.12-26.67-2.32-12.55-1.71-25.18-2.32-37.77-3.56-12.11-1.19-24.25-2-36.36-3.17-15.34-1.46-30.64-3.18-46-4.58-13.09-1.19-26.2-2.06-39.3-3.14C66.42,293.29,64.23,292,62,293.43Z" />
                <path class="cls-9"
                    d="M62,293.43c2.22-1.4,4.41-.14,6.63,0,13.1,1.08,26.21,1.95,39.3,3.14,15.34,1.4,30.64,3.12,46,4.58,12.11,1.14,24.25,2,36.36,3.17,12.59,1.24,25.22,1.85,37.77,3.56,8.83,1.2,17.78,1.49,26.67,2.32,16,1.49,31.94,3.14,47.92,4.63,12.12,1.12,24.25,2,36.37,3.16,12.59,1.16,25.17,2.49,37.76,3.66,12.11,1.12,24.25,2,36.36,3.18,12.59,1.2,25.21,1.91,37.77,3.54,9,1.17,18.11,1.49,27.16,2.34,15.82,1.48,31.62,3.14,47.45,4.61,12.27,1.14,24.57,2,36.85,3.17s24.84,2.48,37.27,3.65c11.79,1.12,23.59,2.1,35.38,3.17,17,1.55,33.9,3.15,50.85,4.69,11.8,1.07,23.61,2,35.4,3.13,12.92,1.19,25.82,2.5,38.74,3.68,12.11,1.11,24.24,2.07,36.36,3.19,12.75,1.18,25.49,2.5,38.24,3.7,11.47,1.08,22.93,2.23,34.42,3.06,12.62.91,25.19,2.18,37.75,3.71,5.46.66,11.12-.44,16.39,1.87-2.44,13.32-5.9,26.39-9.63,39.4q-39-3.46-78-6.94-31-2.8-62-5.8c-23.08-2.2-46.14-4.55-69.22-6.66-16.47-1.51-33-2.62-49.46-4.12-19.21-1.75-38.39-3.81-57.59-5.59-12.6-1.17-25.23-2-37.83-3.16-12.26-1.11-24.51-2.43-36.78-3.59-11.78-1.11-23.58-2.11-35.36-3.21-12.75-1.19-25.49-2.49-38.23-3.66C437,368,424.83,367,412.72,365.9c-13.24-1.19-26.47-2.48-39.71-3.68-8.72-.78-17.46-1.41-26.19-2.21-12.74-1.16-25.48-2.44-38.23-3.61-11.95-1.1-23.91-2.08-35.86-3.19-16.47-1.52-32.92-3.16-49.39-4.66-12.43-1.14-24.89-2.07-37.33-3.22-11.94-1.1-23.86-2.4-35.79-3.55C142,341,133.75,340,125.5,339.65c-7.63-.33-15.19-1.27-22.77-2C88.73,323.29,74.8,308.89,62,293.43Z" />
                <path class="cls-3"
                    d="M576.57,240.64c2.59,1.66,5.2,3,8.28,1.1,1.39-.87,2.37-.1,3.24.93,3.16,6,2.72,10.79-1.43,15.9-4.6-.2-3.9-5.06-6.33-7.17-1-.88-1.4-3.24-3.17-2.22s-.63,2.88.06,4.3c1.39,2.83,4.41,4.92,3.94,8.61-8.62,2.31-16.18-3.2-16.47-12-.05-1.44-.17-2.88-.26-4.32C568.82,244.87,573.27,244.1,576.57,240.64Z" />
                <path class="cls-6"
                    d="M576.57,240.64c-3.3,3.46-7.75,4.23-12.14,5.15L561,244.16c-1.28-3.54-4.66-5.41-6.81-8.31-2.38-3.2-2.07-5.25,0-7.88,1.94.17,3.71-.34,4.47-2.2.64-1.6-1.34-1.93-2-2.93,5.45-4.89,5.69-4.89,8.33,1.74C567.49,230.93,572.05,235.76,576.57,240.64Z" />
                <path class="cls-8"
                    d="M581.16,262.09c.47-3.69-2.55-5.78-3.94-8.61-.69-1.42-1.91-3.24-.06-4.3s2.16,1.34,3.17,2.22c2.43,2.11,1.73,7,6.33,7.17-2.63,2.14-.54,3.9.47,5.74a3.24,3.24,0,0,1-2.84,2C583.92,264.37,584.22,262,581.16,262.09Z" />
                <path class="cls-6"
                    d="M584.29,266.27a3.24,3.24,0,0,0,2.84-2c2.91.22,4.77,1.88,4.46,4.69-.28,2.42-2.74,3.12-4.84,2.88C583.07,271.46,584.3,268.51,584.29,266.27Z" />
                <path class="cls-4"
                    d="M508.64,196.06c2-5.67,2.39-11.7,2.93-17.53a213.56,213.56,0,0,1,3.26-21.46c.73-3.69-.27-4.66-3.71-4.31a52.25,52.25,0,0,1-5.31,0,55.61,55.61,0,0,0,7.11-1c3.11-.85,4.35,0,3.74,3.2-2.59,13.29-4.87,26.64-6.68,40.06-.06.5-.78.92-1.2,1.37C508.77,196.36,508.64,196.06,508.64,196.06Z" />
                <path class="cls-4"
                    d="M610.35,183.29l1.08,1.08c0,.62.05,1.25.07,1.87l0,0a1.89,1.89,0,0,0-2.09,1.82l-.16.19-.25-.05c-3.49-.56-3.36-3.25-3.32-5.79,0-2.33,1.77-.93,2.78-1.12l.07.09A1.79,1.79,0,0,0,610.35,183.29Z" />
                <path class="cls-4" d="M492.47,153.33a42.57,42.57,0,0,1-13.33,0A29,29,0,0,1,492.47,153.33Z" />
                <path class="cls-4" d="M452.89,150.81,438,147.73C443,148.65,448.27,148.1,452.89,150.81Z" />
                <path class="cls-1"
                    d="M608.42,181.32c-1,.19-2.74-1.21-2.78,1.12,0,2.54-.17,5.23,3.32,5.79-.7,1.24-1.82,2.12-3.16,1.73s-.94-1.9-1-3a37.73,37.73,0,0,1-.13-4.87c.06-1.18-.81-3,.81-3.39S608,179.8,608.42,181.32Z" />
                <path class="cls-4"
                    d="M465.18,152.64c-2.35.37-4.46-.83-6.71-1.06C460.76,151.64,463.2,150.67,465.18,152.64Z" />
                <path class="cls-4" d="M433.37,146.89l-4.1-1.09A4.13,4.13,0,0,1,433.37,146.89Z" />
                <path class="cls-4" d="M471.77,152.8h0Z" />
                <path class="cls-1"
                    d="M609.37,188.09a1.89,1.89,0,0,1,2.09-1.82C611.42,187.62,610.53,188,609.37,188.09Z" />
                <path class="cls-1"
                    d="M611.5,186.24c0-.62,0-1.25-.07-1.87a1.19,1.19,0,0,1,1.09,1.27C612.51,185.86,611.86,186,611.5,186.24Z" />
                <path class="cls-1"
                    d="M610.35,183.29a1.79,1.79,0,0,1-1.86-1.88C609.32,181.83,610.13,182.27,610.35,183.29Z" />
                <path class="cls-9" d="M378,130.43l-10.1,4.85c1.9-3.87,5.62-4.45,8.83-5.88Z" />
                <path class="cls-9"
                    d="M373.27,125.22c-1,1.74-2.52,2.73-5.45,3.14,1.36-2.88,3.33-3.4,5.45-3.73A.39.39,0,0,1,373.27,125.22Z" />
                <path class="cls-9" d="M371.89,121.76c1.4-.06,2.28.82,3.14,1.75l-1.54.67a3,3,0,0,1-1.6-2.43Z" />
                <path class="cls-9"
                    d="M371.89,121.75c-3.87-.51-6.71,2.26-10.29,3.09,5.15-3.27,9-8.4,15.16-10l.09.11c-1.06,2.69-5.65,2.8-5,6.77Z" />
                <path class="cls-9" d="M378.71,121.73a10.34,10.34,0,0,1,5.81-2.65c-1.58,2.82-3.74,2.62-5.76,2.7Z" />
                <path class="cls-9" d="M375.74,136.34a3.44,3.44,0,0,1,3-1.91l0,0c-.13,1.88-1.51,1.95-2.9,2Z" />
                <path class="cls-9"
                    d="M365.65,129.28c-.12.26-.19.64-.38.72s-.5-.17-.75-.27c.12-.25.18-.64.37-.72S365.39,129.18,365.65,129.28Z" />
                <path class="cls-9" d="M375.85,136.46c-.33.21-.66.43-1,.62a2.37,2.37,0,0,1-.25-.31l1.14-.43Z" />
                <path class="cls-9" d="M378.72,134.43l.39-1.19.34.25c-.23.32-.47.64-.7,1Z" />
                <path class="cls-9" d="M378.77,114l-1.92,1-.09-.11,1.95-1Z" />
                <path class="cls-9" d="M378.76,121.78l-.25.38c.07-.14.13-.28.2-.43Z" />
                <path class="cls-9" d="M378.71,113.9l.23-.32c-.05.13-.11.26-.17.38Z" />
            </g>
        </g>
    </g>
</svg>