<svg xmlns="http://www.w3.org/2000/svg" viewBox="0 0 595.88 212.98">
    <defs>
        <style>
            .cls-1 {
                fill: #b0ddde;
            }

            .cls-2 {
                fill: #9bcecd;
            }

            .cls-3 {
                fill: #ecbdb4;
            }

            .cls-4 {
                fill: #0f6953;
            }

            .cls-5 {
                fill: #106954;
            }

            .cls-6 {
                fill: #cfccc8;
            }

            .cls-7 {
                fill: #83bcb7;
            }

            .cls-8 {
                fill: #69a9a0;
            }

            .cls-9 {
                fill: #2d7e6c;
            }

            .cls-10 {
                fill: #4a9386;
            }

            .cls-11 {
                fill: #186c58;
            }

            .cls-12 {
                fill: #cbcec9;
            }

            .cls-13 {
                fill: #0f6955;
            }

            .cls-14 {
                fill: #156b57;
            }

            .cls-15 {
                fill: #29715e;
            }
        </style>
    </defs>
    <g id="Layer_2" data-name="Layer 2">
        <g id="Layer_1-2" data-name="Layer 1">
            <g id="_1ewjTe.tif" data-name="1ewjTe.tif">
                <path class="cls-1"
                    d="M463.17,184.51,328.77,189a26.82,26.82,0,0,0-13.41-3.39c-11.58.36-19.42-5.4-25.68-14.92-15.8-24-28.82-49.9-45.21-73.28-12.11-17.28-17.74-37.69-31-54-4.22-5.17-2.67-11,2.09-15.5,2.33-2.18,5.35-3.63,7.35-6.25,13.14-7.68,27-13.17,42.5-13,6-.3,10.84,1.16,15.36,5.94,6.1,6.45,16.07,10.14,23.37,9.07,18.27-2.68,33.69,6.64,50.72,8.37a53,53,0,0,1,26.79,10.41c5.86,4.36,14.43,3.84,21.75,5.73,21.32,5.53,41.94,12.57,60.14,25.42,2.06,1.45,4.36,3.07,6.85,3,20.1-.54,31.21,18.39,49.17,22.45,1.67.38,2.62,2.38,3.31,4.07,1,3.78-.81,7-2.06,10.34-2.43,6.53-2.42,12.77,2.69,18,4.95,5.12,11.11,4.26,17.16,2.56,3.08-.87,5.87-2.88,9.32-2,9.56,8.3,12.33,19.93,15.5,31.38-7.28,7.75-11.54,19.13-24.46,20.09C515.05,184.15,489.09,182.51,463.17,184.51Z" />
                <path class="cls-2"
                    d="M224.45,24.47c-21,26.06,8.23,40.7,16,58.36,12.82,29.26,36.69,53.67,49.93,82.82,8.93,19.67,29.31,10.24,38.43,23.38L322,193c-8.39-4.39-17.4-1.43-26.11-2.12-5.68-.45-11.46.34-17.12-.19-8.77-.8-15.23,1.27-17.1,10.89-14.27-28.82-43.75-7.22-63.17-18.93,6.78-6.64,14.87-3.15,22.54-2.86,3.16.12,7.09,1.92,9.09-1.15,2.32-3.56-2-5.53-3.67-8-14.6-21.83-27.94-44.4-40.74-67.33-6.84-12.26-14.54-24-18.59-37.61-1.71-5.74-2.61-11.22.89-16.59,14.17-13,31.94-19.16,49.34-26A6.43,6.43,0,0,1,224.45,24.47Z" />
                <path class="cls-3"
                    d="M317.79,5.48C420.78,3,508.55,39.32,584.6,107.56c16.6,14.9,14.11,23.77-2.43,34-5,3.44-9.16,1.27-12.3-2.59-4.49-5.54-10.23-10.88-12.47-17.28-3-8.54-9.85-12.85-15.14-18.92a9.83,9.83,0,0,0-8.67-3.37c-10,.67-18.4-3.62-25.93-9.26-9.79-7.34-19.69-14.7-29.86-21.33-13.83-9-30.27-13-46-18.06-2.73-.88-5.94-.84-8.22-2.55-13.17-9.89-28.4-11.61-44.14-11.51-5.36,0-10.11-1.65-13.31-6-3.95-5.36-8.53-6.25-15-5-12.46,2.47-22.23-4.16-31.3-11.52C317.28,12.17,316,9,317.79,5.48Z" />
                <path class="cls-4"
                    d="M115.8,156.9c-41.72-32.77-58.39,17.46-87.55,26.29-8.75,2.65-17.32,5.92-26,8.91,3.51-8.61,4.61-20.13,10.94-25.35C51.76,135,51.51,105.69,11.84,75.12,5.44,70.18,3.83,59.05,0,50.79c8.72,2.51,18.52,3.28,26,7.86,21.13,13,41.29,27.63,61.83,41.61C93.2,99,95.57,103,98.07,106.39c9.45,12.78,15.63,27.41,23,41.33C123.36,152,125.12,158.21,115.8,156.9Z" />
                <path class="cls-5"
                    d="M224.45,24.47l-54,26.22c-2.39,1.58-4,4-6,5.87-5.59,5.08-11.56,6.63-17.76.84L99.32,8.59C120.64,5.54,142,0,163.26,0c36.22,0,72.44,3.6,108.66,5.67,1.43,6.24-4.34,4.36-6.9,6.09Z" />
                <path class="cls-6"
                    d="M265,11.76l6.9-6.09,45.87-.19C327.51,18,343.09,17,354.85,22.29c20.93,9.33,43.46,8.05,63.4,17.53,40.12,19.08,81.2,36.33,120.27,57.32,12.8,6.88,20.4,23.18,30.85,34.75,3.52,3.89,8.49,6.49,12.8,9.68l-12.94,13c-9.46-8.08-11.43-20.58-17.94-30.41-1.1-1.67-1.74-3.81-2.72-5.66-5.12-12.11-16.62-11.23-26.79-13.07-43.61-22-87.38-42.75-134.32-58.21-35.19-11.58-71.15-15.91-106.27-25.35C275.51,20.36,274.61,8.8,265,11.76Z" />
                <path class="cls-7"
                    d="M146.62,57.4c10.06,5.26,15.41-6.08,23.79-6.71-.25,35.84,27,59.28,40.81,88.76,5.87,12.55,16.44,22.89,24.47,34.52,1.29,1.87,1.34,7.14.44,7.55a28.7,28.7,0,0,1-11.91,2.77c-8.57-.08-17.13-1-25.7-1.62l-8.68-2.19c7.31-4.83,6.84-9.66,1.69-16.49-11.41-15.15-22.7-30.52-27.09-49.59-1.33-5.8-6-9.75-9.59-14.12C147.32,91.13,146.32,78.4,137.6,70,139.14,64.77,150.61,66.57,146.62,57.4Z" />
                <path class="cls-8"
                    d="M137.6,70c18.27,8,21.69,28.1,28.92,42.49a588.69,588.69,0,0,0,30.4,53.3c2.08,3.25,3,7.27,4.41,10.94l-11.49,3.74-19.69-4.2c1.69-9.45-1.66-17.17-7-24.91a435.88,435.88,0,0,1-32.63-55.14c-2.91-5.89-7.86-10.06-11.81-15.08Z" />
                <path class="cls-9"
                    d="M115.8,156.9c3.69-16.1-9.53-25.94-14.84-38.65-2.79-6.66-8.69-12-13.18-18l20-12.64c4.29-2.76,7.41-1,10,2.63A20.27,20.27,0,0,1,121.44,98c4.45,24.29,25.74,39.94,32.38,63.08,1.47,5.11,5.89,11.53-5.34,8.7Z" />
                <path class="cls-10"
                    d="M148.48,169.76c5.13-11.6-2.57-23.69-8.24-27.94-18.89-14.16-13.32-41.41-32.45-54.2l10.89-6.47c22.62,12.09,26.39,37.33,38.54,56.52,7,11,27.05,19.89,12.94,38.61Z" />
                <path class="cls-11"
                    d="M261.69,201.6c-6.69-14.15.61-15.74,12.65-15.13,14.68.74,29.43.2,44.15-.12,6.42-.14,7.94,1.5,3.53,6.67C303.48,206.83,285.6,225.27,261.69,201.6Z" />
                <path class="cls-12"
                    d="M551.68,115.68l17.55,38.91c.09,3.26-1,7.3.5,9.62,4.34,6.59,9.75,12.47,14.74,18.63-9.13.75-18.29,2.87-27.39,2.13-32.41-2.63-63.34-2.06-93.91-.46l81.5-1.86c10.23-6.43,21.63-3.49,31.62-3.87-5.86-3.2-12.31-6.54-11.51-15.67l-15.36-30.78C546,126.23,547,120.7,551.68,115.68Z" />
                <path class="cls-13"
                    d="M425.13,122.18c9.71,3.15,33.2-11.65,36.77,3.77,3.24,14-23.37,16.5-36.27,24.86-4.9,3.18-11.43,4.61-17.39,5.29-17.46,2-31.56-4.56-32.33-23-.82-19.61,16.61-7.32,25.29-10.49C406.92,120.49,414,122.18,425.13,122.18Z" />
                <path class="cls-14"
                    d="M551.68,115.68q-1.12,8.32-2.26,16.65c-9.15,8.15-19.1,12.23-29.21,2.36s-6.46-19.88,1.57-29.24C535,99.38,544.66,103.74,551.68,115.68Z" />
                <path class="cls-15"
                    d="M566.4,163l11.26,13.28a2.35,2.35,0,0,1-1.76,3.87l-25.31.38a2.36,2.36,0,0,1-1.68-4q7-6.83,14.06-13.66A2.35,2.35,0,0,1,566.4,163Z" />
            </g>
        </g>
    </g>
</svg>