<svg xmlns="http://www.w3.org/2000/svg" viewBox="0 0 491.6 422.62">
    <defs>
        <style>
            .cls-1 {
                fill: #e5e6e8;
            }

            .cls-2 {
                fill: #bbbdbf;
            }

            .cls-3 {
                fill: #cbd4da;
            }

            .cls-4 {
                fill: #55595c;
            }

            .cls-5 {
                fill: #ecf6fb;
            }

            .cls-6 {
                fill: #5a5b5c;
            }

            .cls-7 {
                fill: #64788b;
            }

            .cls-8 {
                fill: #e6f1f7;
            }

            .cls-9 {
                fill: #647b91;
            }

            .cls-10 {
                fill: #a6bfd4;
            }

            .cls-11 {
                fill: #a8bfd3;
            }

            .cls-12 {
                fill: #92a7b9;
            }

            .cls-13 {
                fill: #dd923f;
            }

            .cls-14 {
                fill: #e4d6c2;
            }

            .cls-15 {
                fill: #535455;
            }

            .cls-16 {
                fill: #ede2d5;
            }

            .cls-17 {
                fill: #cba171;
            }

            .cls-18 {
                fill: #bc9659;
            }

            .cls-19 {
                fill: #788491;
            }

            .cls-20 {
                fill: #a1703c;
            }

            .cls-21 {
                fill: #dcb074;
            }
        </style>
    </defs>
    <g id="Layer_2" data-name="Layer 2">
        <g id="Layer_1-2" data-name="Layer 1">
            <g id="xATy6A.tif">
                <path class="cls-1"
                    d="M134,384l4.05-2.39c3.26.07,5-2.32,7.06-4.28s3.72-4.9,6.37-5.6c12.34-3.24,19.86-13.65,30.23-19.7,4.85-2.82,11.2-1.95,16.09-5.22a223.14,223.14,0,0,1,33.9-15.49c15.59-5.8,24.91-16.28,30.1-31.9,12.72-38.21,26.84-75.95,44.58-112.13,11.65-23.78,29.32-42.92,50.77-58.49,1.14-.83,2.43-1.5,2.36-3.23-1.53-.64-3.53.34-4.85-1.25l9.08-12.75c10-2.07,6.1,7.6,9.48,11.14-3.13,63.32-17.24,124-44.5,181.33,2.46,7.12,6.32-.64,9.26.84a12.13,12.13,0,0,1,3.24.32,24.39,24.39,0,0,0,6.72,0c13,5.94,26.21,2.92,39.54,1.34,8.22-1,16.71.42,24.79-2.4,3.73,1.28,5.61,4.26,2.91,7.15-4.83,5.17-4.16,11.56-5.42,17.57-11.07,8.43-20.32,18.78-30.41,28.22-24.8,23.22-54.74,37.52-87.2,47.44-21,6.41-42.47,7.91-63.9,10.72a93.79,93.79,0,0,1-35.87-2.07,55.36,55.36,0,0,0-13.79-1.31c-10.12,0-19.91-1-26.83-10-1.53-2-4.25-2.52-6.55-3.49-4.5-2.82-11-2.83-12.9-9.27A6.78,6.78,0,0,1,134,384Z" />
                <path class="cls-2"
                    d="M95.21,313.07c10.19-6.69,22.33-5.51,33.51-8.16,34.36-8.14,69.38-3.44,104.12-4.59,8,1.66,15.95,3.26,20.7,11,.63,6.85-3.7,10.4-9,13.1-14.42,7.39-28.41,15.79-44.45,19.54a8.63,8.63,0,0,1-3.07-1.39c-2.71-3.62-6.43-3.6-10.51-3.29-26.76,2.05-53-3.36-79.3-6.55-7.77-1-15.55-1.18-23.3-2.08C79,329.92,75,328,73.29,322.93c2.27-5.81,8.43-3.74,12.52-6C88.69,315.39,92.69,316,95.21,313.07Z" />
                <path class="cls-3"
                    d="M147.35,393.14c4.61-.52,9-.08,9.92,5.49,1.36,8.2,7.73,7.82,13.67,9.06,29.36,6.15,59,4.2,87.9-.59s56.39-15.35,83.12-28.6c26.32-13.05,45.27-34,66.8-52.29,5.9-11.75,17.37-13.33,24.77-3.43-.16,8.12-7.82,9.83-12.09,9.11-10.32-1.77-16.86,3.05-23.52,9-14.63,12.43-25.3,28.71-40.92,40.37-24.06,17.95-49.65,30.57-79.73,35.95-23.56,4.21-46.84,2-70.22,3.17-8-1.09-15.9-2.36-24.06-1.21-6.69.94-13.38.71-19.48-3.14a20.8,20.8,0,0,0-13.2-3c-3.59.31-5.93-1.82-4.52-4.85C148.12,403.16,145.66,398,147.35,393.14Z" />
                <path class="cls-4"
                    d="M84.77,325.9c20.91,2.19,41.83,4.25,62.72,6.61,16.72,1.89,33.43,2.81,50.21,1.05,2.76-.29,5.69-.82,7.7,1.82-.66,4.42-6,2.38-7.22,5.66-4.27,8.06-11.89,9.9-20,10.77-5.18-1.76-11.63,1.19-15.82-4.26-22.41-6.7-44.74-6.8-66.77,1.46-7.49,2.8-14.51,2.92-21.49-1.09-5.69,3.56-12.17,4.38-18.51,3.83-9.63-.83-19.16-1.05-28.71.48-3.51.56-6.52-.07-8.06-3.54-1.76-4,.43-6.76,3.33-9.23a20,20,0,0,1,6.44-3.62c12-4.31,24.63-6.78,36.55-11.49C71.75,321.72,78.15,326.05,84.77,325.9Z" />
                <path class="cls-5"
                    d="M200.37,341.8c18.32-8.07,37.12-15.33,51-30.76-2.94-7.82,6.69-10.52,6.94-17q15-39.21,30-78.41c14-36.31,34.89-67.61,66.32-91.25,1.75-1.2,3.49-2.41,5.25-3.6,1.36-.93,2.74-1.84,4.53-3,.83,9.21-2.06,14.41-9.58,19.42C331,153,316.4,176.6,304.59,202.1c-16.87,36.44-30.17,74.29-44.12,111.89-4.33,11.67-14.55,16.74-24.7,20.39-12.74,4.58-25.08,9.91-37.4,15.4-3.52,1.89-7.42,2.29-8.54-2.11-1.18-4.65,3.71-2.55,5.81-3.59A39.56,39.56,0,0,1,200.37,341.8Z" />
                <path class="cls-6"
                    d="M447.64,270.58c9.45-5.64,18.8-11.48,28.42-16.81,3.78-2.1,8.24-7.86,12.09-3.72,3.47,3.71,3.49,10.19,3.44,16-.09,12.18-7.8,22.68-6.78,35.08.66,8-7.84,6.85-11.84,10.26-1.69,3-3.77,5.45-7.3,6.26-5.82,1.61-13,8.06-14.92-4.22,2.7-5.39,8.36-8.67,10.43-14.53,3.31-11.42,1.67-15.18-8.65-19.63a16.6,16.6,0,0,1-5.38-3.2C446,274.13,445.41,272.22,447.64,270.58Z" />
                <path class="cls-4"
                    d="M84.77,325.9c-10.37-.59-20.36.12-29.57,6-3.5,2.22-7.91,2.69-12.37,2.46a25.21,25.21,0,0,0-18.63,6.44c-1.84,1.65-3.67,3.67-2.42,6.47,1,2.29,3.4,2.51,5.51,2.45,15.59-.44,31.29,1.67,46.78-1.77a21.77,21.77,0,0,1-21.63,5.73c-8.56-2.42-16.13-1.16-24,.88a48.81,48.81,0,0,1-23.23.33c-2.1-.47-4.21-1.31-5-3.56-.93-2.71,1.25-3.87,3.06-4.84,20.32-10.89,40.93-21,64-24.88,2.26-1.5,4.4-1.63,6.34.54Z" />
                <path class="cls-7"
                    d="M412.56,169.44l-1.64,2.34c-1.19,8.28-6.35,14.84-10.2,21.78-7.14,12.84-10.62,26.55-14,40.65-2.39,9.89-3.81,21-12.64,28.41-3.62,1.74-2.34,9.56-9.14,7.35-5.85-10.38.46-19.59,4.05-28.26,2.89-7,5.34-13.94,6.36-21.26A85.44,85.44,0,0,1,389.88,183c5.92-8.57,9.64-18.2,13.95-27.57,2.66-5.77,5.46-12.13,14-10.12a6.87,6.87,0,0,1,2.29,2.75C422.9,157.08,416,162.65,412.56,169.44Z" />
                <path class="cls-5"
                    d="M372.26,304.85c17.09,2.48,31.83-2.21,45.47-12.93,8.43-6.63,17-14.43,29.23-13.4,3.18,5.73-1.94,8.19-4.75,11.26-6.91,7.55-16.16,12.1-24.22,18.19a3.91,3.91,0,0,1-2.83-1.09,193.3,193.3,0,0,1-68.62,2.46c2.44-5,6.28-4.73,10.56-2.79C362.28,307.12,367.37,306.89,372.26,304.85Z" />
                <path class="cls-8"
                    d="M200.37,341.8c-1.06.93-2.12,1.84-3.18,2.78-1.42,1.26-5.16.16-4.42,3.23.53,2.21,3.54,1.73,5.6,2-5.93,5.75-14.79,5.05-21.39,11-5.94,5.38-9.61,10.72-12.4,21.14-.75-13.69-5.43-11.88-11.23-6.46-2.85,2.67-5.92,5.11-8.88,7.67s-5.06,2.19-6.47-1.52c4-9.48,13.41-13.88,19.77-21.14,5.9-6.3,12.43-11.56,21.37-12.76l19-6.69Z" />
                <path class="cls-9"
                    d="M417.32,148.16,417.2,146c-2.7-8.22,2.37-14.35,6.38-20.19,5-7.27,8.81-14,6.82-23.49-1.7-8,3.71-14.29,8.51-19.85,7.39-8.56,12.15-17.23,8-29-1.22-3.44-1.23-8,4.68-8.32,8.36,12.09,6.4,27.35-6.49,43.72-4.58,5.81-7.3,11.26-4.18,18.44-.84,10.38-6.43,18.92-10.76,27.94C425.48,139.21,427.09,149.33,417.32,148.16Z" />
                <path class="cls-10"
                    d="M258.3,294c.38,6.77-4.33,11.48-6.94,17-7.52-1.25-11.84-8-18.53-10.72,3.4-2.68,7-.94,10.26,0C250,302.24,254.84,300,258.3,294Z" />
                <path class="cls-11"
                    d="M73.6,322.11l-6.33-.54c7.64-8.32,18.11-7.38,27.94-8.5C90.79,322.72,81.54,320.87,73.6,322.11Z" />
                <path class="cls-12" d="M179.14,347.72l-21.37,12.77a22.47,22.47,0,0,0,4.55-12.94Z" />
                <path class="cls-13"
                    d="M131.13,389.75l2.05-2c3.82,4.15,9.53,3.35,14.16,5.42,14.72,6,3.81,12.14.08,18.23-14.07.58-26.7,7-40.17,10-4.08.92-8.7,3.16-11.21-2.19a10.46,10.46,0,0,1,2.45-12.74c7.36-6.52,14.21-14.3,25.43-13.83C126.31,391.61,129.1,391.64,131.13,389.75Z" />
                <path class="cls-14"
                    d="M444.19,322,432,324.12c-8.72-10.12-15.65-.37-23.23,2.09-5.35-2.88-6.43-6.16-1.45-10.63,2.89-2.6,5.25-5.79,7.85-8.7.63-.05,1.26-.08,1.89-.07,5.6-2,10.1-6,15.29-8.76,3.69-2,7.33-4.21,11.8-2.46,2.06.6,3.32,2.46,5.1,3.44,11.17,6.1,11.19,6.05,2.88,14.92C449.51,316.65,450,322.43,444.19,322Z" />
                <path class="cls-15"
                    d="M185.53,375.08c-.14,5.82-3.86,8.17-8.93,8.06-3.88-.08-8.59-1.37-8-6.36.61-4.79,3.31-9.95,9-9.83C181.62,367,185.7,369.61,185.53,375.08Z" />
                <path class="cls-4"
                    d="M453.21,5.85c-4.18-1.23-7.66,0-10.43,3.37-8.73,10.72-17.13,21.85-23.4,34.06-11.27,21.9-27.27,40.4-41.53,60.11-3.92,5.41-7,10.32-7.43,16.87l-2,3.37c-2.94,17.23-3.25,34.71-5.88,52-6.84,45.11-20.66,87.79-40,128.89-2.23,1.8-4.4,3.9-2.75,6.93,1.37,2.51,4.24,1.87,6.57,1.61,4.13-.45,8.16-1.34,11.61-3.89h0l2.14-.65,2.13-3.85c7.12-11.94,13.57-24.33,23.67-34.19.87-16.32,12.36-29.51,13.78-45.51,2.55-28.72,23.54-49.14,32.86-74.77.63-1.75,3.08-2.84,4.69-4.23q8.54-13.42,17.1-26.84a14.58,14.58,0,0,0,1.87-12.31c-2.36-7.44-.14-13.55,4.69-18.61C452,76.57,457.91,64,450.31,48c-.28-.6.8-1.86,1.24-2.82q2.06-7.68,4.12-15.38c2.07-4.6,1.94-9.56,2.26-14.42C458.2,11.39,458.12,7.3,453.21,5.85Z" />
                <path class="cls-4" d="M365.88,270.5v.05Z" />
                <path class="cls-16"
                    d="M445.34,298.44c-10.16.32-17.44,10.38-28.29,8.37,8.26-11.24,21-17.7,29.91-28.29q1.28-1.8,2.57-3.58c18.54.54,22.6,7.59,14.67,25.47C457.53,303.35,451.83,297.16,445.34,298.44Z" />
                <path class="cls-17"
                    d="M445.34,298.44c8-15.66,13.05-3.27,18.86,2-1.26,6.18-6.13,9.41-10.56,13-.74.94-1.39.93-1.93-.18,5.09-5.52,6.56-9.34-3.62-8.58C442.13,305.1,441.07,302.8,445.34,298.44Z" />
                <path class="cls-18"
                    d="M451.71,313.23l1.93.18c3.23,6.8,7.48-1,11.06.77.91,12.34-4.26,14.3-20.51,7.78C446.68,319,448,315.1,451.71,313.23Z" />
                <path class="cls-19"
                    d="M455.67,29.8a66.38,66.38,0,0,0,.07-7.46C455.3,18,457.93,12,452.56,9.87c-5.69-2.24-8.89,3.31-11.91,7-3.56,4.41-7.27,9-9.5,14.14-10.6,24.39-28.6,43.89-42.64,66-5.33,8.39-15.43,12.91-18.09,23.23-2.08-9.7,2.9-16.55,8.23-24.08,19.69-27.78,38.57-56.13,57.93-84.13,3.83-5.54,7-14.8,15.58-11.27,9.58,4,8.89,13.52,6.42,22.29A54.46,54.46,0,0,1,455.67,29.8Z" />
                <path class="cls-20"
                    d="M131.13,389.75c-.17,6.59-3.57,5-7.21,2.86C125.3,389.06,127.82,388.41,131.13,389.75Z" />
                <path class="cls-21"
                    d="M424.3,309.14c1.78.22,4.29.16,4,2.35-.5,4.27-4.25,5.06-7.75,5.53-1.66.22-4.15,0-3.88-2.26C417.21,310.51,420.81,309.66,424.3,309.14Z" />
            </g>
        </g>
    </g>
</svg>